<svg xmlns="http://www.w3.org/2000/svg">
    <symbol id="noise" viewBox="0 0 60 60">
        <path d="m18 0c-9.925 0-18 8.748-18 19.549.03819386 2.5043778.72485482 4.9560985 1.993 7.116.5992406 1.0222536 1.11234558 2.092616 1.534 3.2.27964082.8138953.01123513 1.7155455-.668 2.244-1.18174374.9447425-1.86653676 2.3780559-1.859 3.891-.00474262 1.6625215.81717917 3.2186634 2.193 4.152.49462827.3360251.79548602.8911393.807 1.489v8.359c0 5.514 4.037 10 9 10s9-4.486 9-10c-.0151885-4.1184474 1.7757406-8.0365615 4.9-10.72 5.8568631-4.8868272 9.199657-12.1528122 9.1-19.78 0-10.752-8.075-19.5-18-19.5zm7.6 37.761c-3.5690404 3.0626345-5.6158785 7.5360725-5.6 12.239 0 4.411-3.141 8-7 8s-7-3.589-7-8v-8.359c-.01620182-1.2385055-.62394239-2.3945136-1.635-3.11-.85435865-.5579765-1.36810973-1.5105801-1.365-2.531-.00686155-.9198384.41445209-1.7905533 1.14-2.356 1.33140873-1.066671 1.83976683-2.86038 1.266-4.467-.46056114-1.2113301-1.02151176-2.3820678-1.677-3.5-1.10201369-1.874322-1.69783317-4.0029379-1.729-6.177 0-9.649 7.178-17.5 16-17.5s16 7.851 16 17.5c.0915428 7.0411079-2.9939568 13.7487636-8.4 18.261z"/><path id="Shape" d="m18 5c-5.573 0-10.325 3.952-12.17 9.476-.013.033-.022.065-.032.1-.5272418 1.6040759-.79724954 3.2814989-.8 4.97 0 1.2 0 4.87 2.293 7.163.39237889.3789722 1.01608478.3735524 1.40181858-.0121814.38573379-.3857338.39115363-1.0094397.01218142-1.4018186-.82155739-.9132539-1.3491204-2.0527063-1.514-3.27.161-.01.32-.023.487-.023 4.59-.002 8.322 4.198 8.322 9.358 0 .479-.023.929-.06 1.373-.4978832.5315763-1.0275205 1.0324943-1.586 1.5-2.9125701 2.3851948-4.52684196 6.0063691-4.354 9.767 0 .5522847.4477153 1 1 1s1-.4477153 1-1c-.1720387-3.1707753 1.1831952-6.2325036 3.646-8.237 3.5281209-2.707959 5.5239529-6.9587008 5.354-11.403 0-6.26-4.71-11.36-10.5-11.36-.66513337.0017525-1.32831115.0721251-1.979.21 1.7381919-3.68980728 5.4020384-6.09011184 9.479-6.21 6.065 0 11 5.627 11 12.544.0786047 5.4490737-2.2845859 10.6475796-6.442 14.171-.138.119-.291.247-.457.386-1.99 1.654-6.129 5.1-7.095 13.789-.0584247.5475087.3367459 1.0392368.884 1.1.0364619.0052945.0731811.0086327.11.01.5093591-.0004745.9369707-.3837316.993-.89.877-7.89 4.46-10.871 6.386-12.472.177-.148.34-.284.486-.41 4.602707-3.8990033 7.2200661-9.6524245 7.135-15.684 0-8.02-5.832-14.544-13-14.544zm-7.5 10c4.687 0 8.5 4.2 8.5 9.36.0453636 1.8921894-.3303607 3.7708112-1.1 5.5-.671-5.56-4.993-9.86-10.22-9.86-.231 0-.453.017-.676.033 0-.192 0-.359 0-.489.00036187-1.3373184.19162438-2.6677377.568-3.951.92726505-.3890787 1.92241707-.5906241 2.928-.593z"/><path id="Shape" d="m50 23c.0767062-3.1517392 1.4133481-6.1412643 3.711-8.3.2790877-.2478662.3968971-.6305358.3055372-.9924487-.0913598-.361913-.3766793-.6428183-.7399727-.7285245-.3632933-.0857062-.7440796.038055-.9875645.3209732-2.6707148 2.5286775-4.215708 6.0228332-4.289 9.7.073292 3.6771668 1.6182852 7.1713225 4.289 9.7.2434849.2829182.6242712.4066794.9875645.3209732.3632934-.0857062.6486129-.3666115.7399727-.7285245.0913599-.3619129-.0264495-.7445825-.3055372-.9924487-2.2976519-2.1587357-3.6342938-5.1482608-3.711-8.3z"/><path id="Shape" d="m56.665 17.253c-.1981032-.1763985-.4581747-.2668617-.7229856-.2514832-.2648108.0153786-.5126623.1353387-.6890144.3334832-3.0038043 3.1793913-3.0038043 8.1506087 0 11.33.2375816.2668774.5994935.386734.9494069.314421s.6346682-.3258096.747-.665.0351747-.7125436-.2024069-.979421c-2.3292957-2.4206558-2.3292957-6.2493442 0-8.67.1763985-.1981032.2668617-.4581747.2514832-.7229856-.0153786-.2648108-.1353387-.5126623-.3334832-.6890144z"/><path id="Shape" d="m59.743 20.331c-.3695287-.4102424-1.0016135-.4433686-1.412-.074-.8404607.6621414-1.3309783 1.6730443-1.3309783 2.743s.4905176 2.0808586 1.3309783 2.743c.2641632.2474727.6414391.3328718.9864254.2232844.3449863-.1095873.6038197-.397051.6767457-.7516024.072926-.3545515-.0514414-.7208339-.3251711-.957682-.3877047-.3080639-.6300126-.7633419-.669-1.257.0389874-.4936581.2812953-.9489361.669-1.257.4102424-.3695287.4433686-1.0016135.074-1.412z"/><path id="Shape" d="m45 23c0-4.4 1.971-8.652 5.7-12.284.2558022-.2500859.3587539-.6176437.2700742-.9642178-.0886796-.34657414-.3555181-.61951181-.7-.71600002-.3444818-.09648821-.714272-.00186811-.9700742.24821782-4.12 4.016-6.3 8.759-6.3 13.716s2.18 9.7 6.3 13.716c.3954359.3865993 1.0294007.3794359 1.416-.016s.3794359-1.0294007-.016-1.416c-3.729-3.632-5.7-7.884-5.7-12.284z"/><path id="Shape" d="m40 23c0-5.494 2.322-10.786 6.717-15.3.2500859-.25615943.3445154-.62627975.2477178-.97094021-.0967976-.34466047-.3701165-.61149896-.717-.7s-.7146319.01478078-.9647178.27094021c-4.764 4.9-7.283 10.675-7.283 16.7s2.519 11.8 7.283 16.7c.3865993.3959882 1.0210118.4035993 1.417.017s.4035993-1.0210118.017-1.417c-4.395-4.514-6.717-9.806-6.717-15.3z"/>
    </symbol>
    <symbol id="charging" viewBox="0 0 250 409.6">
        <g>
    	    <g>
                <path d="M275.483,34.133H134.117c-15.607,0-28.303,12.696-28.303,28.303v318.86c0,15.607,12.696,28.303,28.303,28.303h141.367
                    c15.607,0,28.303-12.696,28.303-28.303V62.437C303.787,46.829,291.091,34.133,275.483,34.133z M290.133,381.297
                    c0,8.076-6.574,14.65-14.65,14.65H134.117c-8.076,0-14.65-6.574-14.65-14.65V62.437c0-8.076,6.574-14.65,14.65-14.65h141.367
                    c8.076,0,14.65,6.574,14.65,14.65V381.297z"/>
	      </g>
        </g>
        <g>
	        <g>
                <path d="M242.347,0h-75.093c-3.77,0-6.827,3.057-6.827,6.827V40.96c0,3.77,3.057,6.827,6.827,6.827h75.093
                    c3.77,0,6.827-3.057,6.827-6.827V6.827C249.173,3.057,246.117,0,242.347,0z M235.52,34.133h-61.44v-20.48h61.44V34.133z"/>
	        </g>
        </g>
        <g>
	        <g>
                <path d="M254.93,187.479c-1.253-1.971-3.424-3.161-5.757-3.161h-40.96v-61.44c0-3.2-2.224-5.97-5.347-6.663
                    c-3.152-0.69-6.313,0.877-7.666,3.777l-47.787,102.4c-0.986,2.113-0.823,4.588,0.43,6.554c1.253,1.971,3.424,3.161,5.757,3.161
                    h40.96v61.44c0,3.2,2.224,5.97,5.347,6.663c0.497,0.111,0.993,0.164,1.483,0.164c2.606,0,5.043-1.5,6.183-3.941l47.787-102.4
                    C256.346,191.92,256.183,189.445,254.93,187.479z M194.56,218.453h-30.24l30.24-64.804V218.453z M208.213,262.777v-64.804h30.24
                    L208.213,262.777z"/>
	        </g>
        </g>
    </symbol>
    <symbol id="plug" viewBox="0 0 370 512">
            <path d="M391.533,109.933h-25.6V24.6c0-14.507-11.093-25.6-25.6-25.6c-14.507,0-25.6,11.093-25.6,25.6v85.333H195.267V24.6
                    c0-14.507-11.093-25.6-25.6-25.6c-14.507,0-25.6,11.093-25.6,25.6v85.333h-25.6c-5.12,0-8.533,3.413-8.533,8.533v64.853
                    c0,42.667,16.213,83.627,45.227,115.2c25.6,29.013,40.107,66.56,40.107,104.96v22.187c0,23.893,18.773,42.667,42.667,42.667
                    h8.533v34.133c0,5.12,3.413,8.533,8.533,8.533c5.12,0,8.533-3.413,8.533-8.533v-34.133h8.533
                    c23.893,0,42.667-18.773,42.667-42.667v-21.333c0-39.253,13.653-75.947,40.107-104.96
                    c29.013-31.573,45.227-73.387,45.227-116.053v-64.853C400.067,113.347,396.653,109.933,391.533,109.933z M331.8,24.6
                    c0-5.12,3.413-8.533,8.533-8.533s8.533,3.413,8.533,8.533v85.333H331.8V24.6z M161.133,24.6c0-4.267,3.413-8.533,8.533-8.533
                    c5.12,0,8.533,3.413,8.533,8.533v85.333h-17.067V24.6z M383,182.467c0,39.253-13.653,75.947-40.107,104.96
                    C313.88,319,297.667,360.813,297.667,403.48v22.187c0,14.507-11.093,25.6-25.6,25.6h-34.133c-14.507,0-25.6-11.093-25.6-25.6
                    v-21.333c0-42.667-16.213-84.48-45.227-116.053C141.507,259.267,127,221.72,127,183.32V127h25.6h34.133h136.533H357.4H383
                    V182.467z"/>
                <path d="M289.133,220.867h-47.787l45.227-45.227c3.413-3.413,3.413-8.533,0-11.947s-8.533-3.413-11.947,0l-59.733,59.733
                    c-2.56,2.56-3.413,5.973-1.707,9.387c0.853,3.413,4.267,5.12,7.68,5.12h47.787l-45.227,45.227c-3.413,3.413-3.413,8.533,0,11.947
                    c1.707,1.707,3.413,2.56,5.973,2.56c2.56,0,4.267-0.853,5.973-2.56l59.733-59.733c2.56-2.56,3.413-5.973,1.707-9.387
                    C295.96,222.573,292.547,220.867,289.133,220.867z"/>
    </symbol>
    <symbol id="battery" viewBox="0 0 60 60">
        <path d="M42.536,4H36V0H24v4h-6.536C15.554,4,14,5.554,14,7.464v49.072C14,58.446,15.554,60,17.464,60h25.072
                C44.446,60,46,58.446,46,56.536V7.464C46,5.554,44.446,4,42.536,4z M16,19h28v12H16V19z M16,33h28v12H16V33z M26,2h8v2h-8V2z
                M17.464,6H24h12h6.536C43.344,6,44,6.656,44,7.464V17H16V7.464C16,6.656,16.656,6,17.464,6z M42.536,58H17.464
                C16.656,58,16,57.344,16,56.536V47h28v9.536C44,57.344,43.344,58,42.536,58z"/>
    </symbol>
    <symbol id="sound" viewBox="0 0 52.026 52.026">
            <path d="M28.404,3.413c-0.976-0.552-2.131-0.534-3.09,0.044c-0.046,0.027-0.09,0.059-0.13,0.093L11.634,15.013H1
                    c-0.553,0-1,0.447-1,1v19c0,0.266,0.105,0.52,0.293,0.707S0.734,36.013,1,36.013l10.61-0.005l13.543,12.44
                    c0.05,0.046,0.104,0.086,0.161,0.12c0.492,0.297,1.037,0.446,1.582,0.446c0.517-0.001,1.033-0.134,1.508-0.402
                    C29.403,48.048,30,47.018,30,45.857V6.169C30,5.008,29.403,3.978,28.404,3.413z M28,45.857c0,0.431-0.217,0.81-0.579,1.015
                    c-0.155,0.087-0.548,0.255-1,0.026L13,34.569v-4.556c0-0.553-0.447-1-1-1s-1,0.447-1,1v3.996l-9,0.004v-17h9v4c0,0.553,0.447,1,1,1
                    s1-0.447,1-1v-4.536l13.405-11.34c0.461-0.242,0.86-0.07,1.016,0.018C27.783,5.36,28,5.739,28,6.169V45.857z"/>
	        <path d="M38.797,7.066c-0.523-0.177-1.091,0.103-1.269,0.626c-0.177,0.522,0.103,1.091,0.626,1.269
                    c7.101,2.411,11.872,9.063,11.872,16.553c0,7.483-4.762,14.136-11.849,16.554c-0.522,0.178-0.802,0.746-0.623,1.27
                    c0.142,0.415,0.53,0.677,0.946,0.677c0.107,0,0.216-0.017,0.323-0.054c7.896-2.693,13.202-10.106,13.202-18.446
                    C52.026,17.166,46.71,9.753,38.797,7.066z"/>
	        <path d="M43.026,25.513c0-5.972-4.009-11.302-9.749-12.962c-0.533-0.151-1.084,0.152-1.238,0.684
                    c-0.153,0.53,0.152,1.085,0.684,1.238c4.889,1.413,8.304,5.953,8.304,11.04s-3.415,9.627-8.304,11.04
                    c-0.531,0.153-0.837,0.708-0.684,1.238c0.127,0.438,0.526,0.723,0.961,0.723c0.092,0,0.185-0.013,0.277-0.039
                    C39.018,36.815,43.026,31.485,43.026,25.513z"/>
    </symbol>
    <symbol id="time" viewBox="0 0 60 60">
           <path d="M31.634,37.989c1.041-0.081,1.99-0.612,2.606-1.459l9.363-12.944c0.287-0.397,0.244-0.945-0.104-1.293
		c-0.348-0.347-0.896-0.39-1.293-0.104L29.26,31.555c-0.844,0.614-1.375,1.563-1.456,2.604s0.296,2.06,1.033,2.797
		C29.508,37.628,30.413,38,31.354,38C31.447,38,31.54,37.996,31.634,37.989z M29.798,34.315c0.035-0.457,0.269-0.874,0.637-1.142
		l7.897-5.713l-5.711,7.895c-0.27,0.371-0.687,0.604-1.144,0.64c-0.455,0.03-0.902-0.128-1.227-0.453
		C29.928,35.219,29.762,34.771,29.798,34.315z"/>
            <path d="M54.034,19.564c-0.01-0.021-0.01-0.043-0.021-0.064c-0.012-0.02-0.031-0.031-0.044-0.05
                c-1.011-1.734-2.207-3.347-3.565-4.809l2.148-2.147l1.414,1.414l4.242-4.243l-4.242-4.242l-4.243,4.242l1.415,1.415l-2.148,2.147
                c-1.462-1.358-3.074-2.555-4.809-3.566c-0.019-0.013-0.03-0.032-0.05-0.044c-0.021-0.012-0.043-0.011-0.064-0.022
                c-3.093-1.782-6.568-2.969-10.273-3.404V5h1.5c1.379,0,2.5-1.121,2.5-2.5S36.672,0,35.293,0h-9c-1.379,0-2.5,1.121-2.5,2.5
                s1.121,2.5,2.5,2.5h1.5v1.156c-1.08,0.115-2.158,0.291-3.224,0.535c-0.538,0.123-0.875,0.66-0.751,1.198
                c0.123,0.538,0.66,0.876,1.198,0.751c0.92-0.211,1.849-0.37,2.78-0.477l1.073-0.083c0.328-0.025,0.63-0.043,0.924-0.057V10
                c0,0.553,0.447,1,1,1s1-0.447,1-1V8.03c3.761,0.173,7.305,1.183,10.456,2.845l-0.986,1.707c-0.276,0.479-0.112,1.09,0.366,1.366
                c0.157,0.091,0.329,0.134,0.499,0.134c0.346,0,0.682-0.179,0.867-0.5l0.983-1.703c3.129,1.985,5.787,4.643,7.772,7.772
                l-1.703,0.983C49.57,20.91,49.406,21.521,49.683,22c0.186,0.321,0.521,0.5,0.867,0.5c0.17,0,0.342-0.043,0.499-0.134l1.707-0.986
                c1.685,3.196,2.698,6.798,2.849,10.619H53.63c-0.553,0-1,0.447-1,1s0.447,1,1,1h1.975c-0.151,3.821-1.164,7.423-2.849,10.619
                l-1.707-0.986c-0.478-0.276-1.09-0.114-1.366,0.366c-0.276,0.479-0.112,1.09,0.366,1.366l1.703,0.983
                c-1.985,3.129-4.643,5.787-7.772,7.772l-0.983-1.703c-0.277-0.48-0.89-0.643-1.366-0.366c-0.479,0.276-0.643,0.888-0.366,1.366
                l0.986,1.707c-3.151,1.662-6.695,2.672-10.456,2.845V56c0-0.553-0.447-1-1-1s-1,0.447-1,1v1.976
                c-1.597-0.055-3.199-0.255-4.776-0.617c-0.538-0.129-1.075,0.213-1.198,0.751c-0.124,0.538,0.213,1.075,0.751,1.198
                C26.568,59.768,28.607,60,30.63,60c0.049,0,0.096-0.003,0.145-0.004c0.007,0,0.012,0.004,0.018,0.004
                c0.008,0,0.015-0.005,0.023-0.005c4.807-0.033,9.317-1.331,13.219-3.573c0.031-0.014,0.064-0.021,0.094-0.039
                c0.02-0.012,0.031-0.031,0.05-0.044c4.039-2.354,7.414-5.725,9.773-9.761c0.019-0.027,0.043-0.048,0.06-0.078
                c0.012-0.021,0.011-0.043,0.021-0.064C56.317,42.476,57.63,37.89,57.63,33S56.317,23.524,54.034,19.564z M53.965,8.251l1.414,1.414
                l-1.414,1.415L52.55,9.665L53.965,8.251z M29.793,6.021V3h-3.5c-0.275,0-0.5-0.225-0.5-0.5s0.225-0.5,0.5-0.5h9
                c0.275,0,0.5,0.225,0.5,0.5S35.568,3,35.293,3h-3.5v3.021C31.445,6.007,31.113,6,30.793,6c-0.028,0-0.06,0.002-0.088,0.002
                C30.68,6.002,30.655,6,30.63,6c-0.164,0-0.328,0.011-0.492,0.014C30.022,6.017,29.913,6.016,29.793,6.021z"/>
            <path d="M21.793,14h-5c-0.553,0-1,0.447-1,1s0.447,1,1,1h5c0.553,0,1-0.447,1-1S22.346,14,21.793,14z"/>
            <path d="M21.793,21h-10c-0.553,0-1,0.447-1,1s0.447,1,1,1h10c0.553,0,1-0.447,1-1S22.346,21,21.793,21z"/>
            <path d="M21.793,28h-15c-0.553,0-1,0.447-1,1s0.447,1,1,1h15c0.553,0,1-0.447,1-1S22.346,28,21.793,28z"/>
            <path d="M21.793,35h-19c-0.553,0-1,0.447-1,1s0.447,1,1,1h19c0.553,0,1-0.447,1-1S22.346,35,21.793,35z"/>
            <path d="M21.793,42h-13c-0.553,0-1,0.447-1,1s0.447,1,1,1h13c0.553,0,1-0.447,1-1S22.346,42,21.793,42z"/>
            <path d="M21.793,49h-7c-0.553,0-1,0.447-1,1s0.447,1,1,1h7c0.553,0,1-0.447,1-1S22.346,49,21.793,49z"/> 
    </symbol>
    <symbol viewBox="0 0 36.7 36.7" id="fb">
        <path d="M17.525,9H14V7c0-1.032,0.084-1.682,1.563-1.682h1.868v-3.18C16.522,2.044,15.608,1.998,14.693,2 C11.98,2,10,3.657,10,6.699V9H7v4l3-0.001V22h4v-9.003l3.066-0.001L17.525,9z"  fill="#fff"/>
    </symbol>
    <symbol viewBox="0 0 36.7 36.7" id="insta">
        <path d="M32.3 0H4.4C2 0 0 1.9 0 4.3v28.1c0 2.4 2 4.3 4.4 4.3h27.9c2.4 0 4.4-1.9 4.4-4.3V4.3c0-2.4-2-4.3-4.4-4.3m-5.9 5.7c0-.6.5-1.1 1.1-1.1H31c.6 0 1.1.5 1.1 1.1v3.4c0 .6-.5 1.1-1.1 1.1h-3.4c-.6 0-1.1-.5-1.1-1.1l-.1-3.4zm-8 5.6c3.9 0 7.1 3.1 7.1 7s-3.2 7-7.1 7-7.1-3.1-7.1-7c0-3.8 3.2-7 7.1-7m14.8 20.8c0 .6-.5 1.1-1.1 1.1H4.6c-.6 0-1.1-.5-1.1-1.1V14.9H8c-.6.9-.8 2.5-.8 3.5 0 6.1 5 11.1 11.2 11.1s11.2-5 11.2-11.1c0-1-.1-2.6-.9-3.5h4.6l-.1 17.2z" fill="#fff"></path>
    </symbol>
    <symbol viewBox="0 0 36.7 36.7" id="tw">
        <path d="M35.7 3.7c-1.5.9-3.1 1.5-4.8 1.9-1.4-1.5-3.3-2.4-5.5-2.4-4.2 0-7.5 3.5-7.5 7.7 0 .6.1 1.2.2 1.8-6.3-.4-11.8-3.5-15.5-8.2-.6 1.1-1 2.5-1 3.9 0 2.7 1.3 5 3.4 6.4-1.2 0-2.4-.4-3.4-1v.2c0 3.7 2.6 6.9 6 7.6-.6.2-1.3.3-2 .3-.5 0-1 0-1.4-.1 1 3.1 3.7 5.3 7 5.4-2.6 2.1-5.8 3.3-9.4 3.3-.6 0-1.2 0-1.8-.1 3.3 2.2 7.3 3.5 11.5 3.5 13.9 0 21.4-11.8 21.4-22v-1c1.5-1.1 2.8-2.4 3.8-4-1.3.6-2.8 1-4.3 1.2 1.5-1.1 2.7-2.6 3.3-4.4"
        fill="#fff"></path>
    </symbol>
    <symbol viewBox="0 0 36.7 36.7" id="vk">
        <path d="M36.5 26.8c0-.1-.1-.2-.1-.2-.6-1.1-1.9-2.6-3.7-4.2-.8-.8-1.3-1.3-1.5-1.6-.4-.5-.5-1-.3-1.5.2-.4.7-1.2 1.7-2.5.5-.7.9-1.2 1.2-1.6 2.2-2.9 3.2-4.8 2.9-5.6l-.1-.2c-.1-.3-.3-.4-.6-.5-.3-.1-.7-.1-1.2 0h-5.9c-.2 0-.2.1-.2.1h-.1l-.1.1c-.1 0-.1.1-.2.2s-.1.2-.2.3c-.6 1.5-1.3 3-2 4.3-.5.8-.9 1.5-1.3 2.1-.4.6-.7 1-1 1.3l-.7.7c-.2.2-.4.2-.5.2-.1 0-.2-.1-.3-.1-.2-.1-.3-.3-.4-.5-.1-.2-.2-.4-.2-.7 0-.3-.1-.6-.1-.8v-5.7c0-.4 0-.7-.1-.9 0-.2-.1-.4-.2-.6-.1-.2-.2-.4-.4-.5l-.6-.3c-.7-.2-1.5-.2-2.6-.2-2.4 0-3.9.1-4.6.5-.3.1-.5.3-.7.6-.2.3-.3.4-.1.5.8.1 1.3.4 1.6.8l.1.2c.1.2.2.5.3.9.1.4.1.9.2 1.4.1.9.1 1.7 0 2.4s-.1 1.2-.2 1.5c-.1.4-.1.7-.3.9l-.2.4c0 .1-.1.1-.1.1-.2.1-.3.1-.5.1s-.4-.1-.6-.3c-.3-.2-.5-.4-.8-.7-.3-.3-.6-.7-.9-1.3-.3-.6-.7-1.2-1.1-2l-.3-.6c-.2-.4-.5-.9-.8-1.6-.3-.7-.6-1.3-.9-2-.1-.2-.3-.4-.5-.6h-.1C7.1 9 7 9 6.9 8.9c-.1 0-.3-.1-.4-.1H1.3c-.6 0-1 .2-1.2.4v.1c-.1.1-.1.2-.1.3 0 .1 0 .3.1.5.8 1.8 1.6 3.5 2.5 5.2.9 1.7 1.7 3 2.3 4 .7 1 1.3 2 2 2.9.7.9 1.1 1.5 1.4 1.7.2.3.4.4.5.6l.5.5c.3.3.8.7 1.3 1.1.6.4 1.2.8 2 1.3.7.4 1.6.8 2.5 1 1 .3 1.9.4 2.8.3h2.2c.4 0 .8-.2 1-.4l.1-.1c.1-.1.1-.2.1-.4s.1-.3.1-.5c0-.5 0-1 .1-1.5.1-.4.2-.8.3-1 .1-.2.3-.4.4-.6.2-.2.3-.2.3-.3.1 0 .1-.1.2-.1.3-.1.7 0 1.1.3.4.3.8.7 1.2 1.1.4.4.8.9 1.3 1.5.5.5 1 1 1.3 1.2l.4.2c.3.2.6.3 1 .4.4.1.8.2 1.1.1l4.9-.1c.5 0 .9-.1 1.1-.2.3-.2.4-.3.5-.5.1-.2.1-.4 0-.7 0 0 0-.2-.1-.3zm0 0"
        fill="#fff"></path>
    </symbol>
    <symbol viewBox="0 0 54 54" id="gear">
        <path d="M27,13c-7.72,0-14,6.28-14,14s6.28,14,14,14s14-6.28,14-14S34.72,13,27,13z M27,39c-6.617,0-12-5.383-12-12s5.383-12,12-12
		s12,5.383,12,12S33.617,39,27,39z"/>
	    <path d="M51.22,21h-2.018c-0.515-1.912-1.272-3.742-2.26-5.457l1.426-1.426c0.525-0.525,0.814-1.224,0.814-1.966
		c0-0.743-0.289-1.441-0.814-1.967l-4.553-4.553c-1.05-1.049-2.881-1.051-3.933,0l-1.426,1.426C36.74,6.07,34.911,5.313,33,4.798
		V2.78C33,1.247,31.753,0,30.22,0H23.78C22.247,0,21,1.247,21,2.78v2.018c-1.911,0.515-3.74,1.272-5.457,2.26l-1.426-1.426
		c-1.051-1.052-2.883-1.05-3.933,0l-4.553,4.553c-0.525,0.525-0.814,1.224-0.814,1.967c0,0.742,0.289,1.44,0.814,1.966l1.426,1.426
		C6.07,17.258,5.312,19.088,4.798,21H2.78C1.247,21,0,22.247,0,23.78v6.439C0,31.753,1.247,33,2.78,33h2.018
		c0.515,1.911,1.272,3.74,2.26,5.457l-1.426,1.426c-0.525,0.525-0.814,1.224-0.814,1.966c0,0.743,0.289,1.441,0.814,1.967
		l4.553,4.553c1.05,1.051,2.882,1.052,3.933,0l1.426-1.426c1.717,0.987,3.546,1.745,5.457,2.26v2.018c0,1.533,1.247,2.78,2.78,2.78
		h6.439c1.533,0,2.78-1.247,2.78-2.78v-2.018c1.911-0.515,3.74-1.272,5.457-2.26l1.426,1.426c1.052,1.052,2.882,1.05,3.933,0
		l4.553-4.553c0.525-0.525,0.814-1.224,0.814-1.967c0-0.742-0.289-1.44-0.814-1.966l-1.426-1.426
		c0.987-1.717,1.745-3.546,2.26-5.457h2.018c1.533,0,2.78-1.247,2.78-2.78V23.78C54,22.247,52.753,21,51.22,21z M52,30.22
		C52,30.65,51.65,31,51.22,31h-3.592l-0.18,0.773c-0.521,2.237-1.399,4.36-2.613,6.311l-0.42,0.674l2.539,2.539
		c0.305,0.305,0.305,0.8,0,1.104l-4.553,4.553c-0.304,0.304-0.799,0.306-1.104,0l-2.539-2.539l-0.674,0.42
		c-1.95,1.214-4.073,2.093-6.311,2.613L31,47.628v3.592C31,51.65,30.65,52,30.22,52H23.78C23.35,52,23,51.65,23,51.22v-3.592
		l-0.773-0.18c-2.237-0.521-4.36-1.399-6.311-2.613l-0.674-0.42l-2.539,2.539c-0.306,0.306-0.801,0.304-1.104,0l-4.553-4.553
		c-0.305-0.305-0.305-0.8,0-1.104l2.539-2.539l-0.42-0.674c-1.214-1.95-2.093-4.073-2.613-6.311L6.372,31H2.78
		C2.35,31,2,30.65,2,30.22V23.78C2,23.35,2.35,23,2.78,23h3.592l0.18-0.773c0.521-2.238,1.399-4.361,2.613-6.311l0.42-0.674
		l-2.539-2.539c-0.305-0.305-0.305-0.8,0-1.104l4.553-4.553c0.304-0.304,0.799-0.306,1.104,0l2.539,2.539l0.674-0.42
		c1.95-1.214,4.073-2.093,6.311-2.613L23,6.372V2.78C23,2.35,23.35,2,23.78,2h6.439C30.65,2,31,2.35,31,2.78v3.592l0.773,0.18
		c2.237,0.521,4.36,1.399,6.311,2.613l0.674,0.42l2.539-2.539c0.306-0.306,0.801-0.304,1.104,0l4.553,4.553
		c0.305,0.305,0.305,0.8,0,1.104l-2.539,2.539l0.42,0.674c1.214,1.949,2.093,4.072,2.613,6.311L47.628,23h3.592
		C51.65,23,52,23.35,52,23.78V30.22z"/>
	    <path d="M27,17c-5.514,0-10,4.486-10,10s4.486,10,10,10s10-4.486,10-10S32.514,17,27,17z M27,35c-4.411,0-8-3.589-8-8s3.589-8,8-8
		s8,3.589,8,8S31.411,35,27,35z"/>
    </symbol>
    <symbol viewBox="0 0 512 512" id="bluetooth">
        <path d="M388.38,373.785L280.823,256L388.38,138.228c3.379-3.709,5.102-8.651,4.741-13.662c-0.36-5.016-2.755-9.666-6.641-12.855
			L255.73,4.18c-5.48-4.509-13.057-5.456-19.472-2.419c-6.415,3.024-10.503,9.476-10.503,16.57v177.373l-75.059-82.201
			c-6.819-7.472-18.421-7.998-25.893-1.173c-7.472,6.825-7.998,18.415-1.173,25.893l102.125,111.84v11.877L123.631,373.785
			c-6.831,7.466-6.305,19.063,1.173,25.893c7.478,6.831,19.069,6.305,25.893-1.179l75.053-82.189v177.361
			c0,7.087,4.094,13.545,10.503,16.576c2.493,1.173,5.169,1.754,7.827,1.754c4.173,0,8.303-1.418,11.651-4.167L386.48,400.301
			c3.886-3.195,6.281-7.845,6.641-12.855C393.481,382.436,391.771,377.493,388.38,373.785z M262.414,57.139l85.873,70.617
			l-85.873,94.042V57.139z M262.414,454.862V290.209l85.873,94.036L262.414,454.862z"/>
    </symbol>
    <symbol viewBox="0 0 512 512" id="road">
        <g>
            <path d="M112,96C50.24,96,0,146.24,0,208c0,57.472,89.856,159.264,100.096,170.688c3.04,3.36,7.36,5.312,11.904,5.312
                s8.864-1.952,11.904-5.312C134.144,367.264,224,265.472,224,208C224,146.24,173.76,96,112,96z M112,343.584
                C77.056,302.144,32,238.528,32,208c0-44.096,35.904-80,80-80s80,35.904,80,80C192,238.496,146.944,302.144,112,343.584z"/>
        </g>
        <g>
            <path d="M112,160c-26.464,0-48,21.536-48,48s21.536,48,48,48s48-21.536,48-48S138.464,160,112,160z M112,224
                c-8.832,0-16-7.168-16-16c0-8.832,7.168-16,16-16c8.832,0,16,7.168,16,16C128,216.832,120.832,224,112,224z"/>
        </g>
        <g>
            <path d="M496,0H368c-8.832,0-16,7.168-16,16v96v64c0,8.832,7.168,16,16,16c8.832,0,16-7.168,16-16v-48h112c8.832,0,16-7.168,16-16
                V16C512,7.168,504.832,0,496,0z M480,96h-96V32h96V96z"/>
        </g>
        <g>
            <path d="M448,352H288c-17.632,0-32-14.368-32-32c0-17.632,14.368-32,32-32h34.944c6.624,18.592,24.224,32,45.056,32
                c26.464,0,48-21.536,48-48s-21.536-48-48-48c-20.832,0-38.432,13.408-45.056,32H288c-35.296,0-64,28.704-64,64
                c0,35.296,28.704,64,64,64h160c17.632,0,32,14.368,32,32c0,17.632-14.368,32-32,32H157.056c-6.624-18.592-24.224-32-45.056-32
                c-26.464,0-48,21.536-48,48s21.536,48,48,48c20.832,0,38.432-13.408,45.056-32H448c35.296,0,64-28.704,64-64
                C512,380.704,483.296,352,448,352z M368,256c8.832,0,16,7.168,16,16c0,8.832-7.168,16-16,16c-8.832,0-16-7.168-16-16
                C352,263.168,359.168,256,368,256z M112,480c-8.832,0-16-7.168-16-16c0-8.832,7.168-16,16-16c8.832,0,16,7.168,16,16
                C128,472.832,120.832,480,112,480z"/>
        </g>
    </symbol>
    <symbol viewBox="0 0 510 510" id="charger">
        <path d="m469.2 153.583v-44.653c0-8.284-6.716-15-15-15h-69.66c-8.284 0-15 6.716-15 15v44.653c-7.65.684-13.649 7.104-13.649 14.932v80.658c0 18.379 14.953 33.331 33.332 33.331h15.147v159.796c0 20.788-16.917 37.7-37.71 37.7h-163.97c-20.788 0-37.7-16.912-37.7-37.7v-32.3h31.9c8.284 0 15-6.716 15-15v-48.667h15.933c24.813 0 45-20.187 45-45v-136.046c0-20.233-13.425-37.386-31.833-43.03v-51.437c0-8.284-6.716-15-15-15h-20.99v-40.82c0-8.284-6.716-15-15-15s-15 6.716-15 15v40.82h-50.02v-40.82c0-8.284-6.716-15-15-15s-15 6.716-15 15v40.82h-20.99c-8.284 0-15 6.716-15 15v51.437c-18.409 5.644-31.833 22.796-31.833 43.03v136.046c0 24.813 20.187 45 45 45h15.933v48.667c0 8.284 6.716 15 15 15h31.9v32.3c0 37.33 30.37 67.7 67.7 67.7h163.97c37.335 0 67.71-30.37 67.71-67.7v-159.796h15.142c18.379 0 33.332-14.952 33.332-33.331v-80.658c0-7.827-5.997-14.245-13.644-14.932zm-258.21-67.763v34.467h-122v-34.467zm-153.834 215.513v-136.046c0-8.271 6.729-15 15-15h155.667c8.271 0 15 6.729 15 15v136.046c0 8.271-6.729 15-15 15-6.286 0-148.508 0-155.667 0-8.271 0-15-6.729-15-15zm60.934 45h63.8v33.667h-63.8zm321.11-222.403v29.585h-39.66v-29.585zm13.644 125.243c0 1.837-1.495 3.331-3.332 3.331-1.835 0-43.311 0-60.289 0-1.837 0-3.332-1.494-3.332-3.331v-65.658h66.953z"/><path d="m130.98 248.31h15.217l-6.632 15.381c-3.28 7.607.228 16.434 7.834 19.714 7.619 3.282 16.437-.236 19.713-7.835l15.661-36.32c4.27-9.902-3.014-20.939-13.774-20.939h-15.217l6.632-15.38c3.28-7.607-.228-16.434-7.834-19.714-7.609-3.279-16.434.229-19.713 7.835l-15.661 36.319c-4.27 9.901 3.014 20.939 13.774 20.939z"/>
    </symbol>
    <symbol viewBox="-6 0 512 512" id="kg">
        <path d="m427.863281 136.527344h-114.414062c12.054687-14.445313 19.324219-33.019532 19.324219-53.261719 0-45.914063-37.351563-83.265625-83.261719-83.265625-45.914063 0-83.265625 37.351562-83.265625 83.265625 0 20.242187 7.269531 38.816406 19.324218 53.261719h-114.414062l-71.15625 375.472656h499.019531zm-178.351562-106.527344c29.367187 0 53.261719 23.894531 53.261719 53.265625 0 29.367187-23.894532 53.261719-53.261719 53.261719-29.371094 0-53.265625-23.894532-53.265625-53.261719 0-29.371094 23.894531-53.265625 53.265625-53.265625zm-153.507813 136.527344h307.011719l59.785156 315.472656h-426.582031zm0 0"/><path d="m250.117188 264.589844h-34.050782l-47.605468 47.539062v-47.539062h-24.46875v119.890625h24.46875v-40.976563l12.339843-12.03125 37.292969 53.007813h31.585938l-51.40625-69.820313zm0 0"/><path d="m298.527344 341.347656h32.332031v13.148438c-2.597656 1.894531-6.136719 3.753906-10.554687 5.539062-5.375 2.175782-10.960938 3.277344-16.59375 3.277344-6.449219 0-12.621094-1.441406-18.351563-4.285156-5.523437-2.738282-9.625-6.832032-12.53125-12.519532-3-5.863281-4.519531-13.382812-4.519531-22.347656 0-7.261718 1.289062-14.070312 3.816406-20.214844 1.429688-3.417968 3.464844-6.601562 6.050781-9.472656 2.464844-2.734375 5.820313-5 9.964844-6.730468 4.222656-1.761719 9.382813-2.65625 15.34375-2.65625 4.855469 0 9.304687.839843 13.222656 2.496093 3.726563 1.574219 6.585938 3.640625 8.496094 6.136719 2.070313 2.703125 3.863281 6.601562 5.332031 11.589844l1.375 4.667968 22.527344-6.179687-1.214844-4.722656c-2.066406-8.046875-5.175781-14.722657-9.246094-19.851563-4.175781-5.261718-9.945312-9.394531-17.15625-12.285156-6.984374-2.800781-14.859374-4.21875-23.410156-4.21875-11.726562 0-22.28125 2.46875-31.371094 7.335938-9.304687 4.984374-16.523437 12.683593-21.441406 22.882812-4.785156 9.914062-7.207031 20.71875-7.207031 32.125 0 11.546875 2.453125 22.179688 7.300781 31.597656 4.957032 9.640625 12.390625 17.105469 22.101563 22.191406 9.503906 4.980469 20.183593 7.507813 31.742187 7.507813 8.566406 0 17.03125-1.558594 25.160156-4.636719 8.050782-3.042968 15.945313-7.628906 23.464844-13.625l1.871094-1.488281v-48.164063l-56.503906.089844zm0 0"/>
    </symbol>
    <symbol viewBox="0 -38 512 512" id="patent">
        <path d="m512 0h-512v372.167969h314.972656v64.589843l55.980469-27.34375 55.980469 27.34375v-64.589843h85.066406zm-141.046875 312.144531c-28.125 0-51-22.878906-51-51 0-28.121093 22.875-51 51-51 28.121094 0 51 22.878907 51 51 0 28.121094-22.878906 51-51 51zm0 63.882813-25.980469 12.6875v-50.871094c8.160156 2.773438 16.890625 4.300781 25.980469 4.300781 9.085937 0 17.816406-1.527343 25.980469-4.300781v50.871094zm111.046875-33.859375h-55.066406v-22.566407c15.398437-14.753906 25.019531-35.496093 25.019531-58.457031 0-44.664062-36.335937-81-81-81s-81 36.335938-81 81c0 22.960938 9.617187 43.707031 25.019531 58.457031v22.566407h-284.972656v-312.167969h452zm0 0"/><path d="m60.035156 120.09375h391.929688v30h-391.929688zm0 0"/><path d="m105.070312 60.046875h301.859376v30h-301.859376zm0 0"/><path d="m60.035156 282.121094h145.925782v30h-145.925782zm0 0"/><path d="m60.035156 222.070312h145.925782v30h-145.925782zm0 0"/>
    </symbol>
    <symbol viewBox="0 0 401.998 401.998" id="phone">
        <path d="M401.129,311.475c-1.137-3.426-8.371-8.473-21.697-15.129c-3.61-2.098-8.754-4.949-15.41-8.566
		c-6.662-3.617-12.709-6.95-18.13-9.996c-5.432-3.045-10.521-5.995-15.276-8.846c-0.76-0.571-3.139-2.234-7.136-5
		c-4.001-2.758-7.375-4.805-10.14-6.14c-2.759-1.327-5.473-1.995-8.138-1.995c-3.806,0-8.56,2.714-14.268,8.135
		c-5.708,5.428-10.944,11.324-15.7,17.706c-4.757,6.379-9.802,12.275-15.126,17.7c-5.332,5.427-9.713,8.138-13.135,8.138
		c-1.718,0-3.86-0.479-6.427-1.424c-2.566-0.951-4.518-1.766-5.858-2.423c-1.328-0.671-3.607-1.999-6.845-4.004
		c-3.244-1.999-5.048-3.094-5.428-3.285c-26.075-14.469-48.438-31.029-67.093-49.676c-18.649-18.658-35.211-41.019-49.676-67.097
		c-0.19-0.381-1.287-2.19-3.284-5.424c-2-3.237-3.333-5.518-3.999-6.854c-0.666-1.331-1.475-3.283-2.425-5.852
		s-1.427-4.709-1.427-6.424c0-3.424,2.713-7.804,8.138-13.134c5.424-5.327,11.326-10.373,17.7-15.128
		c6.379-4.755,12.275-9.991,17.701-15.699c5.424-5.711,8.136-10.467,8.136-14.273c0-2.663-0.666-5.378-1.997-8.137
		c-1.332-2.765-3.378-6.139-6.139-10.138c-2.762-3.997-4.427-6.374-4.999-7.139c-2.852-4.755-5.799-9.846-8.848-15.271
		c-3.049-5.424-6.377-11.47-9.995-18.131c-3.615-6.658-6.468-11.799-8.564-15.415C98.986,9.233,93.943,1.997,90.516,0.859
		C89.183,0.288,87.183,0,84.521,0c-5.142,0-11.85,0.95-20.129,2.856c-8.282,1.903-14.799,3.899-19.558,5.996
		c-9.517,3.995-19.604,15.605-30.264,34.826C4.863,61.566,0.01,79.271,0.01,96.78c0,5.135,0.333,10.131,0.999,14.989
		c0.666,4.853,1.856,10.326,3.571,16.418c1.712,6.09,3.093,10.614,4.137,13.56c1.045,2.948,2.996,8.229,5.852,15.845
		c2.852,7.614,4.567,12.275,5.138,13.988c6.661,18.654,14.56,35.307,23.695,49.964c15.03,24.362,35.541,49.539,61.521,75.521
		c25.981,25.98,51.153,46.49,75.517,61.526c14.655,9.134,31.314,17.032,49.965,23.698c1.714,0.568,6.375,2.279,13.986,5.141
		c7.614,2.854,12.897,4.805,15.845,5.852c2.949,1.048,7.474,2.43,13.559,4.145c6.098,1.715,11.566,2.905,16.419,3.576
		c4.856,0.657,9.853,0.996,14.989,0.996c17.508,0,35.214-4.856,53.105-14.562c19.219-10.656,30.826-20.745,34.823-30.269
		c2.102-4.754,4.093-11.273,5.996-19.555c1.909-8.278,2.857-14.985,2.857-20.126C401.99,314.814,401.703,312.819,401.129,311.475z"
		/>
    </symbol>
</svg>