<?xml version="1.0" encoding="utf-8"?>
<!-- Generator: Adobe Illustrator 23.0.3, SVG Export Plug-In . SVG Version: 6.00 Build 0)  -->
<svg version="1.1" id="Слой_1" xmlns="http://www.w3.org/2000/svg" xmlns:xlink="http://www.w3.org/1999/xlink" x="0px" y="0px"
	 viewBox="0 0 254 314.7" style="enable-background:new 0 0 254 314.7;" xml:space="preserve">
<style type="text/css">
	.st0{fill:#DF213E;}
	.st1{fill:#FFFFFF;}
</style>
<g>
	<path class="st0" d="M127,0C77.3,0,0,38.7,0,127c0,99.4,127,187.7,127,187.7S254,226.4,254,127C254,38.7,176.7,0,127,0z"/>
	<path class="st1" d="M127,155.2c15.6,0,28.2-12.6,28.2-28.2S142.6,98.8,127,98.8S98.8,111.4,98.8,127l0,0
		C98.8,142.6,111.4,155.2,127,155.2z M127,33.1c-9.6,0-19.1,1.5-28.2,4.3v52c20.8-15.6,50.2-11.4,65.8,9.4s11.4,50.2-9.4,65.8
		s-50.2,11.4-65.8-9.4c-6.1-8.1-9.4-18-9.4-28.2V45.6c-45,25.9-60.4,83.3-34.5,128.3s83.3,60.4,128.3,34.5s60.4-83.3,34.5-128.3
		C191.6,51,160.6,33.1,127,33.1z"/>
</g>
</svg>
