<?xml version="1.0" encoding="iso-8859-1"?>
<!-- Generator: Adobe Illustrator 19.0.0, SVG Export Plug-In . SVG Version: 6.00 Build 0)  -->
<svg version="1.1" id="Capa_1" xmlns="http://www.w3.org/2000/svg" xmlns:xlink="http://www.w3.org/1999/xlink" x="0px" y="0px"
	 viewBox="0 0 512 512" style="enable-background:new 0 0 512 512;" xml:space="preserve">
<g>
	<g>
		<path d="M388.38,373.785L280.823,256L388.38,138.228c3.379-3.709,5.102-8.651,4.741-13.662c-0.36-5.016-2.755-9.666-6.641-12.855
			L255.73,4.18c-5.48-4.509-13.057-5.456-19.472-2.419c-6.415,3.024-10.503,9.476-10.503,16.57v177.373l-75.059-82.201
			c-6.819-7.472-18.421-7.998-25.893-1.173c-7.472,6.825-7.998,18.415-1.173,25.893l102.125,111.84v11.877L123.631,373.785
			c-6.831,7.466-6.305,19.063,1.173,25.893c7.478,6.831,19.069,6.305,25.893-1.179l75.053-82.189v177.361
			c0,7.087,4.094,13.545,10.503,16.576c2.493,1.173,5.169,1.754,7.827,1.754c4.173,0,8.303-1.418,11.651-4.167L386.48,400.301
			c3.886-3.195,6.281-7.845,6.641-12.855C393.481,382.436,391.771,377.493,388.38,373.785z M262.414,57.139l85.873,70.617
			l-85.873,94.042V57.139z M262.414,454.862V290.209l85.873,94.036L262.414,454.862z"/>
	</g>
</g>
<g>
</g>
<g>
</g>
<g>
</g>
<g>
</g>
<g>
</g>
<g>
</g>
<g>
</g>
<g>
</g>
<g>
</g>
<g>
</g>
<g>
</g>
<g>
</g>
<g>
</g>
<g>
</g>
<g>
</g>
</svg>
