<svg height="512pt" viewBox="0 -38 512 512" width="512pt" xmlns="http://www.w3.org/2000/svg"><path d="m512 0h-512v372.167969h314.972656v64.589843l55.980469-27.34375 55.980469 27.34375v-64.589843h85.066406zm-141.046875 312.144531c-28.125 0-51-22.878906-51-51 0-28.121093 22.875-51 51-51 28.121094 0 51 22.878907 51 51 0 28.121094-22.878906 51-51 51zm0 63.882813-25.980469 12.6875v-50.871094c8.160156 2.773438 16.890625 4.300781 25.980469 4.300781 9.085937 0 17.816406-1.527343 25.980469-4.300781v50.871094zm111.046875-33.859375h-55.066406v-22.566407c15.398437-14.753906 25.019531-35.496093 25.019531-58.457031 0-44.664062-36.335937-81-81-81s-81 36.335938-81 81c0 22.960938 9.617187 43.707031 25.019531 58.457031v22.566407h-284.972656v-312.167969h452zm0 0"/><path d="m60.035156 120.09375h391.929688v30h-391.929688zm0 0"/><path d="m105.070312 60.046875h301.859376v30h-301.859376zm0 0"/><path d="m60.035156 282.121094h145.925782v30h-145.925782zm0 0"/><path d="m60.035156 222.070312h145.925782v30h-145.925782zm0 0"/></svg>