<svg id="Capa_1" enable-background="new 0 0 510 510" height="512" viewBox="0 0 510 510" width="512" xmlns="http://www.w3.org/2000/svg"><path d="m469.2 153.583v-44.653c0-8.284-6.716-15-15-15h-69.66c-8.284 0-15 6.716-15 15v44.653c-7.65.684-13.649 7.104-13.649 14.932v80.658c0 18.379 14.953 33.331 33.332 33.331h15.147v159.796c0 20.788-16.917 37.7-37.71 37.7h-163.97c-20.788 0-37.7-16.912-37.7-37.7v-32.3h31.9c8.284 0 15-6.716 15-15v-48.667h15.933c24.813 0 45-20.187 45-45v-136.046c0-20.233-13.425-37.386-31.833-43.03v-51.437c0-8.284-6.716-15-15-15h-20.99v-40.82c0-8.284-6.716-15-15-15s-15 6.716-15 15v40.82h-50.02v-40.82c0-8.284-6.716-15-15-15s-15 6.716-15 15v40.82h-20.99c-8.284 0-15 6.716-15 15v51.437c-18.409 5.644-31.833 22.796-31.833 43.03v136.046c0 24.813 20.187 45 45 45h15.933v48.667c0 8.284 6.716 15 15 15h31.9v32.3c0 37.33 30.37 67.7 67.7 67.7h163.97c37.335 0 67.71-30.37 67.71-67.7v-159.796h15.142c18.379 0 33.332-14.952 33.332-33.331v-80.658c0-7.827-5.997-14.245-13.644-14.932zm-258.21-67.763v34.467h-122v-34.467zm-153.834 215.513v-136.046c0-8.271 6.729-15 15-15h155.667c8.271 0 15 6.729 15 15v136.046c0 8.271-6.729 15-15 15-6.286 0-148.508 0-155.667 0-8.271 0-15-6.729-15-15zm60.934 45h63.8v33.667h-63.8zm321.11-222.403v29.585h-39.66v-29.585zm13.644 125.243c0 1.837-1.495 3.331-3.332 3.331-1.835 0-43.311 0-60.289 0-1.837 0-3.332-1.494-3.332-3.331v-65.658h66.953z"/><path d="m130.98 248.31h15.217l-6.632 15.381c-3.28 7.607.228 16.434 7.834 19.714 7.619 3.282 16.437-.236 19.713-7.835l15.661-36.32c4.27-9.902-3.014-20.939-13.774-20.939h-15.217l6.632-15.38c3.28-7.607-.228-16.434-7.834-19.714-7.609-3.279-16.434.229-19.713 7.835l-15.661 36.319c-4.27 9.901 3.014 20.939 13.774 20.939z"/></svg>